@startuml AppLogic
state "AppLogic State" as Shellguard_AppLogic_State {
  state "ClosingApplication" as Shellguard_AppLogic_State_ClosingApplication
  state "LeavingGame" as Shellguard_AppLogic_State_LeavingGame
  state "StartingNewGame" as Shellguard_AppLogic_State_StartingNewGame
  state "InMainMenu" as Shellguard_AppLogic_State_InMainMenu
  state "LeavingMenu" as Shellguard_AppLogic_State_LeavingMenu
  state "LoadingGame" as Shellguard_AppLogic_State_LoadingGame
  state "InGame" as Shellguard_AppLogic_State_InGame
}

Shellguard_AppLogic_State_ClosingApplication --> Shellguard_AppLogic_State_ClosingApplication : FadeOutFinished
Shellguard_AppLogic_State_InGame --> Shellguard_AppLogic_State_ClosingApplication : QuitApp
Shellguard_AppLogic_State_InGame --> Shellguard_AppLogic_State_LeavingGame : BackToMainMenu
Shellguard_AppLogic_State_InMainMenu --> Shellguard_AppLogic_State_ClosingApplication : QuitApp
Shellguard_AppLogic_State_InMainMenu --> Shellguard_AppLogic_State_LeavingMenu : LoadGame
Shellguard_AppLogic_State_InMainMenu --> Shellguard_AppLogic_State_LeavingMenu : NewGame
Shellguard_AppLogic_State_LeavingGame --> Shellguard_AppLogic_State_ClosingApplication : FadeOutFinished
Shellguard_AppLogic_State_LeavingGame --> Shellguard_AppLogic_State_InMainMenu : FadeOutFinished
Shellguard_AppLogic_State_LeavingMenu --> Shellguard_AppLogic_State_LoadingGame : FadeOutFinished
Shellguard_AppLogic_State_LeavingMenu --> Shellguard_AppLogic_State_StartingNewGame : FadeOutFinished
Shellguard_AppLogic_State_LoadingGame --> Shellguard_AppLogic_State_InGame : GameReady
Shellguard_AppLogic_State_StartingNewGame --> Shellguard_AppLogic_State_InGame : GameReady

Shellguard_AppLogic_State_ClosingApplication : OnEnter → FadeOut
Shellguard_AppLogic_State_ClosingApplication : OnFadeOutFinished → CloseApplication
Shellguard_AppLogic_State_InGame : OnEnter → ShowGame
Shellguard_AppLogic_State_InMainMenu : OnEnter → ShowMainMenu
Shellguard_AppLogic_State_LeavingGame : OnEnter → FadeOut
Shellguard_AppLogic_State_LeavingGame : OnExit → FadeIn, RemoveGame
Shellguard_AppLogic_State_LeavingMenu : OnEnter → FadeOut
Shellguard_AppLogic_State_LeavingMenu : OnExit → HideMainMenu
Shellguard_AppLogic_State_LeavingMenu : OnFadeOutFinished → FadeIn
Shellguard_AppLogic_State_LoadingGame : OnEnter → LoadGame, SetupGame
Shellguard_AppLogic_State_LoadingGame : OnExit → FadeIn
Shellguard_AppLogic_State_StartingNewGame : OnEnter → SetupGame

[*] --> Shellguard_AppLogic_State_InMainMenu
@enduml